<svg xmlns="http://www.w3.org/2000/svg" viewBox="0 0 64 64" role="img" aria-label="CPR by Jason Haynor">
  <rect width="64" height="64" rx="15" fill="#111318"/>
  <!-- firefighter Maltese cross, subtle backdrop -->
  <path d="M27 9h10v9l9-4 4 9-9 4 9 4-4 9-9-4v9H27v-9l-9 4-4-9 9-4-9-4 4-9 9 4z" fill="#C8102E" opacity=".16"/>
  <!-- heart -->
  <path d="M32 47C14 35 18 18 28 18c4 0 4 4 4 4s0-4 4-4c10 0 14 17-4 29z" fill="#C8102E"/>
  <!-- heartbeat line -->
  <path d="M17 31h7l3-6.5 4.3 12 3.2-7.5 2 2h8.5" fill="none" stroke="#fff" stroke-width="2.7" stroke-linecap="round" stroke-linejoin="round"/>
</svg>
